<svg xmlns="http://www.w3.org/2000/svg" xmlns:xlink="http://www.w3.org/1999/xlink" width="512" zoomAndPan="magnify" viewBox="0 0 384 383.999986" height="512" preserveAspectRatio="xMidYMid meet" version="1.0"><defs><clipPath id="881b217e4d"><path d="M 0 59.550781 L 383.636719 59.550781 L 383.636719 324.300781 L 0 324.300781 Z M 0 59.550781 " clip-rule="nonzero"/></clipPath></defs><g clip-path="url(#881b217e4d)"><path fill="#fdfdfd" d="M -13.859375 59.550781 L 383.636719 59.550781 L 383.636719 324.300781 L -13.859375 324.300781 Z M -13.859375 59.550781 " fill-opacity="1" fill-rule="nonzero"/></g><path fill="#094379" d="M 91.476562 156.964844 L 96.777344 156.964844 L 96.816406 158.140625 C 96.835938 158.652344 96.859375 159.167969 96.882812 159.679688 L 96.902344 160.453125 C 96.960938 161.628906 97.058594 162.480469 97.535156 163.570312 C 98.058594 164.261719 98.058594 164.261719 98.683594 164.683594 C 100.410156 165.230469 102.28125 165.128906 104.066406 164.917969 C 104.726562 164.621094 104.726562 164.621094 105.164062 164.152344 C 106.664062 161.757812 106.171875 160.351562 106.382812 156.964844 L 120.628906 156.964844 L 120.957031 161.9375 C 121.3125 163.324219 121.3125 163.324219 121.953125 164.257812 C 122.78125 164.824219 123.355469 164.925781 124.363281 165.03125 L 125.574219 165.042969 L 126.785156 165.070312 C 127.9375 164.996094 127.9375 164.996094 128.863281 164.320312 C 129.660156 163.601562 129.660156 163.601562 130.003906 162.414062 C 130.300781 160.957031 130.269531 159.515625 130.222656 158.035156 L 130.234375 157.296875 L 130.5625 156.964844 C 131.789062 156.875 133.019531 156.890625 134.25 156.882812 L 135.289062 156.863281 C 137.296875 156.851562 138.730469 156.984375 140.5 157.960938 C 141.941406 158.847656 142.9375 159.976562 143.773438 161.441406 C 145.703125 165.871094 144.863281 171.863281 144.863281 176.597656 L 144.867188 179.132812 C 144.867188 180.894531 144.871094 182.65625 144.871094 184.417969 C 144.871094 186.441406 144.871094 188.46875 144.878906 190.492188 C 144.882812 192.457031 144.882812 194.421875 144.882812 196.386719 C 144.882812 197.214844 144.886719 198.042969 144.886719 198.871094 C 144.917969 209.667969 144.917969 209.667969 143.296875 212.777344 C 142.203125 214.390625 140.878906 215.65625 139.175781 216.609375 C 137.105469 217.464844 135.195312 217.773438 132.96875 217.828125 L 132.019531 217.859375 C 127.773438 217.996094 123.527344 217.988281 119.277344 217.992188 L 117.929688 217.992188 C 115.582031 217.996094 113.234375 217.996094 110.886719 217.996094 C 108.714844 217.996094 106.539062 218 104.367188 218.003906 C 102.484375 218.007812 100.601562 218.011719 98.71875 218.011719 C 97.601562 218.011719 96.484375 218.011719 95.367188 218.015625 C 94.125 218.019531 92.882812 218.019531 91.640625 218.015625 C 91.277344 218.019531 90.917969 218.019531 90.542969 218.019531 C 87.496094 218.007812 84.484375 217.863281 81.746094 216.421875 C 80.113281 215.351562 79.117188 214.027344 78.226562 212.300781 C 77.550781 210.910156 77.472656 209.667969 77.488281 208.144531 L 77.488281 207.402344 C 77.488281 206.59375 77.496094 205.785156 77.5 204.976562 L 77.503906 203.289062 C 77.507812 201.8125 77.511719 200.335938 77.519531 198.859375 C 77.527344 197.351562 77.53125 195.839844 77.535156 194.332031 C 77.539062 191.375 77.550781 188.417969 77.566406 185.460938 C 78.875 185.453125 80.1875 185.445312 81.5 185.441406 L 82.632812 185.433594 L 83.710938 185.429688 L 84.710938 185.425781 C 85.515625 185.460938 85.515625 185.460938 86.175781 185.792969 L 86.183594 186.679688 C 86.203125 189.433594 86.226562 192.191406 86.253906 194.945312 C 86.269531 196.359375 86.285156 197.777344 86.292969 199.195312 C 86.300781 200.558594 86.3125 201.925781 86.332031 203.292969 C 86.335938 203.816406 86.339844 204.335938 86.34375 204.859375 C 86.347656 205.589844 86.355469 206.316406 86.367188 207.046875 L 86.375 208.308594 C 86.429688 209.304688 86.429688 209.304688 86.933594 209.9375 C 87.605469 210.382812 88.023438 210.53125 88.828125 210.644531 C 89.679688 210.683594 90.523438 210.707031 91.378906 210.714844 L 92.152344 210.726562 C 92.996094 210.734375 93.839844 210.742188 94.6875 210.746094 L 95.566406 210.753906 C 97.101562 210.765625 98.636719 210.773438 100.171875 210.78125 C 101.4375 210.785156 102.703125 210.796875 103.96875 210.8125 C 105.5 210.832031 107.035156 210.84375 108.566406 210.847656 C 109.148438 210.851562 109.730469 210.855469 110.308594 210.867188 C 113.066406 210.910156 115.425781 210.933594 117.953125 209.691406 C 118.523438 209.359375 119.082031 209.015625 119.632812 208.65625 L 120.351562 208.203125 C 120.925781 207.835938 121.46875 207.445312 122.015625 207.042969 L 122.597656 206.617188 C 124.046875 205.550781 125.394531 204.398438 126.699219 203.15625 L 127.253906 202.691406 L 127.914062 202.691406 L 128.160156 202.121094 C 128.648438 201.238281 129.238281 200.625 129.941406 199.898438 C 133.964844 195.511719 136.40625 189.855469 137.851562 184.136719 C 138.558594 180.304688 138.753906 176.253906 138.390625 172.375 L 138.320312 171.554688 C 138.273438 171.335938 138.230469 171.113281 138.183594 170.882812 C 137.589844 170.191406 137.589844 170.191406 136.894531 170.015625 C 135.738281 169.808594 134.578125 169.847656 133.40625 169.855469 L 132.554688 169.859375 C 131.941406 169.859375 131.328125 169.863281 130.714844 169.863281 C 129.730469 169.867188 128.75 169.871094 127.765625 169.871094 C 125.316406 169.875 122.863281 169.882812 120.410156 169.890625 C 116.359375 169.910156 112.304688 169.910156 108.25 169.898438 C 106.6875 169.890625 105.128906 169.890625 103.566406 169.898438 C 102.164062 169.910156 100.761719 169.90625 99.359375 169.894531 C 98.855469 169.890625 98.347656 169.894531 97.839844 169.898438 C 96.351562 169.917969 94.925781 169.894531 93.464844 169.558594 C 92.359375 168.808594 91.632812 167.949219 90.816406 166.90625 L 89.820312 166.246094 C 90.1875 165.316406 90.566406 164.410156 91 163.511719 C 91.585938 162.144531 91.800781 160.769531 91.808594 159.285156 Z M 91.476562 156.964844 " fill-opacity="1" fill-rule="nonzero"/><path fill="#1fade9" d="M 77.566406 185.460938 C 78.875 185.453125 80.1875 185.445312 81.5 185.441406 L 82.632812 185.433594 L 83.710938 185.429688 L 84.710938 185.425781 C 85.515625 185.460938 85.515625 185.460938 86.175781 185.792969 L 86.183594 186.679688 C 86.203125 189.433594 86.226562 192.191406 86.253906 194.945312 C 86.269531 196.359375 86.285156 197.777344 86.292969 199.195312 C 86.300781 200.558594 86.3125 201.925781 86.332031 203.292969 C 86.335938 203.816406 86.339844 204.335938 86.34375 204.859375 C 86.347656 205.589844 86.355469 206.316406 86.367188 207.046875 L 86.375 208.308594 C 86.429688 209.304688 86.429688 209.304688 86.933594 209.9375 C 87.605469 210.382812 88.023438 210.53125 88.828125 210.644531 C 89.679688 210.675781 90.527344 210.6875 91.378906 210.683594 L 92.15625 210.683594 C 92.996094 210.683594 93.839844 210.679688 94.679688 210.679688 L 96.4375 210.675781 C 97.972656 210.675781 99.511719 210.671875 101.050781 210.667969 C 102.621094 210.664062 104.1875 210.664062 105.757812 210.660156 C 108.835938 210.65625 111.917969 210.652344 114.996094 210.644531 L 114.664062 211.640625 C 112.144531 213.035156 109.277344 213.925781 106.570312 214.890625 L 105.726562 215.195312 C 104.171875 215.738281 102.722656 216.0625 101.082031 216.277344 L 100.328125 216.609375 C 98.90625 217.132812 97.433594 217.175781 95.929688 217.292969 C 95.308594 217.34375 94.6875 217.398438 94.0625 217.449219 L 93.234375 217.515625 C 92.511719 217.597656 91.847656 217.753906 91.144531 217.933594 C 88.289062 218.136719 85.277344 218 82.609375 216.890625 C 81.089844 216.066406 80.042969 215.199219 79.054688 213.773438 C 78.199219 212.371094 77.601562 211.148438 77.484375 209.488281 C 77.484375 209.042969 77.484375 208.59375 77.488281 208.144531 L 77.488281 207.402344 C 77.488281 206.59375 77.496094 205.785156 77.5 204.976562 L 77.503906 203.289062 C 77.507812 201.8125 77.511719 200.335938 77.519531 198.859375 C 77.527344 197.351562 77.53125 195.839844 77.53125 194.332031 C 77.539062 191.375 77.550781 188.417969 77.566406 185.460938 " fill-opacity="1" fill-rule="nonzero"/><path fill="#d4f1fb" d="M 129.902344 193.746094 L 130.5625 193.746094 C 130.527344 194.238281 130.484375 194.726562 130.441406 195.21875 L 130.371094 196.042969 L 130.234375 196.730469 L 129.570312 197.058594 L 129.238281 198.054688 L 128.578125 198.054688 L 128.578125 199.378906 L 129.238281 199.710938 L 128.742188 200.125 L 128.246094 200.703125 L 128.246094 202.03125 C 127.523438 202.84375 127.523438 202.84375 126.589844 203.6875 C 126.316406 203.9375 126.046875 204.1875 125.769531 204.445312 C 123.800781 206.144531 121.753906 207.628906 119.550781 209.007812 L 118.804688 209.488281 L 118.074219 209.933594 L 117.4375 210.324219 C 115.570312 211.085938 113.40625 211.019531 111.417969 211.023438 L 110.679688 211.027344 C 109.882812 211.03125 109.089844 211.03125 108.292969 211.03125 L 106.625 211.035156 C 105.460938 211.039062 104.300781 211.039062 103.136719 211.039062 C 101.648438 211.039062 100.160156 211.042969 98.671875 211.046875 C 97.527344 211.050781 96.378906 211.054688 95.230469 211.050781 C 94.679688 211.050781 94.132812 211.054688 93.582031 211.058594 C 92.816406 211.058594 92.050781 211.058594 91.285156 211.058594 L 89.964844 211.058594 C 88.636719 210.964844 87.695312 210.644531 86.578125 209.941406 C 86.175781 209.320312 86.175781 209.320312 86.066406 208.144531 C 86.066406 207.65625 86.070312 207.171875 86.082031 206.6875 L 86.085938 205.910156 C 86.089844 205.09375 86.101562 204.277344 86.117188 203.460938 C 86.121094 202.90625 86.125 202.351562 86.128906 201.796875 C 86.140625 200.4375 86.15625 199.082031 86.175781 197.722656 L 86.507812 197.722656 L 86.839844 200.375 L 87.066406 199.753906 L 87.503906 199.046875 C 88.050781 198.820312 88.605469 198.597656 89.160156 198.386719 L 89.488281 197.390625 L 90.277344 197.402344 C 90.609375 197.40625 90.945312 197.410156 91.292969 197.410156 L 92.304688 197.425781 L 93.132812 197.390625 L 93.464844 197.058594 L 92.800781 196.398438 L 94.789062 194.410156 L 95.785156 194.410156 L 96.09375 195.21875 C 97.097656 197.191406 98.808594 198.726562 100.613281 199.964844 C 103.929688 201.882812 107.523438 202.867188 111.332031 203.105469 C 115.867188 203.039062 120.078125 201.660156 124 199.441406 C 126.429688 197.921875 128.386719 196.171875 129.902344 193.746094 " fill-opacity="1" fill-rule="nonzero"/><path fill="#013065" d="M 155.738281 163.59375 C 167.554688 163.59375 167.554688 163.59375 169.894531 164.675781 C 171.472656 165.792969 172.941406 166.890625 173.957031 168.5625 C 175.222656 171.335938 175.203125 174.507812 175.019531 177.5 C 174.867188 178.996094 174.386719 180.207031 173.625 181.488281 L 173.222656 182.203125 C 172.101562 183.941406 170.699219 184.808594 168.882812 185.75 C 166.605469 186.710938 164.132812 186.578125 161.703125 186.664062 L 160.425781 186.714844 L 159.195312 186.757812 L 158.078125 186.800781 C 157.0625 186.789062 157.0625 186.789062 155.40625 186.457031 Z M 155.738281 163.59375 " fill-opacity="1" fill-rule="nonzero"/><path fill="#145690" d="M 91.476562 156.964844 L 96.777344 156.964844 L 96.816406 158.140625 C 96.835938 158.652344 96.859375 159.167969 96.882812 159.679688 L 96.902344 160.453125 C 96.960938 161.628906 97.058594 162.480469 97.535156 163.570312 C 98.058594 164.261719 98.058594 164.261719 98.683594 164.683594 C 100.414062 165.234375 102.28125 165.125 104.066406 164.917969 C 105.199219 164.164062 105.566406 163.507812 106.28125 162.371094 C 106.765625 161.148438 107.011719 159.972656 107.234375 158.679688 C 107.378906 157.960938 107.378906 157.960938 107.707031 157.296875 L 119.300781 157.296875 L 119.300781 158.292969 L 119.964844 158.292969 L 119.929688 158.851562 C 119.863281 160.734375 120.070312 162.246094 120.957031 163.925781 C 121.609375 164.75 122.117188 165.164062 123.050781 165.644531 C 124.113281 165.964844 125.15625 166.113281 126.257812 166.246094 L 126.257812 167.238281 L 126.921875 167.570312 L 125.925781 167.570312 L 125.925781 168.234375 L 123.277344 168.5625 L 123.277344 168.894531 C 119.554688 168.925781 115.832031 168.949219 112.109375 168.964844 C 110.378906 168.972656 108.648438 168.980469 106.921875 168.996094 C 105.253906 169.007812 103.582031 169.019531 101.914062 169.019531 C 101.277344 169.023438 100.640625 169.027344 100.003906 169.035156 C 99.113281 169.046875 98.222656 169.046875 97.328125 169.046875 L 96.535156 169.058594 C 95.546875 169.054688 94.746094 169.027344 93.839844 168.613281 C 93.285156 168.265625 93.285156 168.265625 92.472656 167.570312 L 92.472656 166.90625 L 91.808594 166.90625 C 91.4375 165.871094 91.4375 165.871094 91.144531 164.585938 C 91.355469 163.921875 91.574219 163.257812 91.808594 162.597656 C 91.953125 160.664062 91.753906 158.898438 91.476562 156.964844 " fill-opacity="1" fill-rule="nonzero"/><path fill="#155791" d="M 86.46875 168.5625 L 87.503906 168.894531 L 87.503906 169.558594 L 88.207031 169.785156 C 89.40625 170.332031 90.183594 170.980469 91.144531 171.878906 L 91.144531 172.539062 L 91.808594 172.539062 C 93.082031 174.664062 93.664062 176.472656 93.816406 178.945312 C 93.796875 179.828125 93.796875 179.828125 93.464844 181.15625 L 71.933594 181.15625 C 71.933594 176.03125 71.933594 176.03125 72.929688 174.195312 L 73.320312 173.457031 C 74.390625 171.652344 75.652344 170.53125 77.378906 169.363281 C 80.144531 167.839844 83.4375 167.804688 86.46875 168.5625 " fill-opacity="1" fill-rule="nonzero"/><path fill="#013065" d="M 261.636719 170.542969 C 262.347656 170.851562 263.042969 171.183594 263.726562 171.546875 L 263.726562 172.207031 L 264.304688 172.414062 C 265.335938 173.046875 265.773438 173.820312 266.375 174.859375 C 266.988281 176.75 266.945312 178.984375 266.554688 180.917969 C 265.972656 182.636719 265.019531 184.191406 263.726562 185.460938 C 262.191406 186.464844 260.425781 187.035156 258.601562 187.175781 C 256.8125 187.054688 255.09375 186.5 253.457031 185.792969 C 252.265625 184.980469 251.554688 184.234375 250.890625 182.957031 L 250.480469 182.1875 C 249.703125 180.566406 249.679688 179.097656 249.699219 177.320312 C 249.84375 175.878906 250.214844 174.832031 250.9375 173.585938 C 252 172.160156 253.246094 171.320312 254.824219 170.53125 C 257.085938 169.625 259.355469 169.722656 261.636719 170.542969 M 245.835938 163.925781 L 245.835938 164.585938 L 246.789062 164.878906 C 247.824219 165.25 247.824219 165.25 248.488281 165.914062 C 248.46875 166.492188 248.46875 166.492188 248.15625 167.238281 C 247.636719 167.9375 247.078125 168.574219 246.5 169.226562 C 245.585938 168.875 244.722656 168.5 243.851562 168.046875 C 242.175781 167.246094 240.726562 167.171875 238.882812 167.238281 C 238.328125 167.332031 237.773438 167.4375 237.226562 167.570312 L 237.226562 168.234375 L 236.5 168.585938 C 235.375 169.359375 234.851562 170.074219 234.226562 171.28125 C 233.53125 173.332031 233.671875 175.53125 234.058594 177.640625 C 234.550781 179.210938 235.507812 180.417969 236.621094 181.609375 C 237.242188 182.210938 237.242188 182.210938 238.21875 182.644531 C 240.25 182.984375 241.910156 182.855469 243.851562 182.148438 L 244.90625 181.425781 C 245.835938 180.824219 245.835938 180.824219 246.519531 180.78125 C 247.535156 181.371094 248.109375 182.214844 248.820312 183.144531 C 248.503906 183.878906 248.242188 184.390625 247.640625 184.925781 C 245.820312 186.074219 243.996094 186.789062 241.863281 187.121094 C 240.726562 187.132812 239.664062 186.992188 238.550781 186.789062 L 237.785156 186.683594 C 235.726562 186.34375 234.214844 185.421875 232.585938 184.136719 C 231.808594 183.445312 231.605469 183.175781 231.261719 182.148438 L 230.789062 181.703125 C 229.875 180.742188 229.597656 179.546875 229.210938 178.300781 C 228.601562 175.730469 228.722656 173.328125 229.460938 170.800781 C 230.300781 168.578125 231.476562 166.871094 233.273438 165.324219 C 237.28125 162.394531 241.292969 162.652344 245.835938 163.925781 M 187.871094 170.21875 C 189.320312 170.976562 190.394531 171.949219 191.390625 173.238281 C 192.367188 174.8125 192.730469 176.285156 192.890625 178.117188 C 192.839844 178.835938 192.839844 178.835938 192.175781 179.828125 C 191.359375 179.914062 190.539062 179.949219 189.71875 179.925781 L 188.988281 179.921875 C 188.214844 179.914062 187.441406 179.90625 186.667969 179.890625 C 186.144531 179.886719 185.621094 179.882812 185.097656 179.878906 C 183.8125 179.867188 182.53125 179.851562 181.246094 179.828125 C 181.726562 181.121094 182.167969 181.910156 183.230469 182.8125 C 184.578125 183.261719 185.800781 183.285156 187.207031 183.144531 C 188.023438 182.875 188.746094 182.523438 189.527344 182.148438 L 190.519531 182.148438 C 191.246094 183.144531 191.246094 183.144531 191.84375 184.136719 C 191.636719 184.738281 191.636719 184.738281 191.183594 185.460938 C 189.652344 186.539062 187.875 186.839844 186.054688 187.085938 C 184.058594 187.144531 182.371094 186.660156 180.582031 185.792969 C 179.425781 184.984375 178.617188 184.09375 177.917969 182.867188 C 177.054688 181.003906 176.804688 179.214844 176.9375 177.179688 C 177.378906 175.320312 178.039062 173.699219 179.257812 172.207031 C 180.359375 171.195312 181.410156 170.613281 182.816406 170.097656 C 184.53125 169.761719 186.179688 169.777344 187.871094 170.21875 " fill-opacity="1" fill-rule="nonzero"/><path fill="#012f64" d="M 291.550781 170.21875 C 293.003906 170.933594 294.089844 171.957031 295.109375 173.207031 C 295.96875 174.566406 296.136719 176.035156 296.234375 177.613281 C 296.246094 178.242188 296.21875 178.871094 296.1875 179.5 L 295.855469 179.828125 C 295.046875 179.859375 294.238281 179.867188 293.433594 179.863281 L 292.699219 179.859375 C 291.921875 179.859375 291.144531 179.855469 290.371094 179.851562 L 288.792969 179.847656 C 287.503906 179.84375 286.214844 179.835938 284.925781 179.828125 C 285.417969 180.851562 285.847656 181.734375 286.582031 182.605469 C 287.640625 183.179688 288.191406 183.25 289.375 183.289062 C 290.894531 183.238281 291.871094 182.898438 293.207031 182.148438 C 293.929688 182.148438 293.929688 182.148438 294.53125 182.480469 C 295.152344 183.246094 295.152344 183.246094 295.523438 184.136719 C 295.378906 184.839844 295.378906 184.839844 294.863281 185.460938 C 293.328125 186.433594 291.683594 186.898438 289.894531 187.121094 C 287.988281 187.152344 286.328125 186.699219 284.617188 185.871094 C 283.527344 185.222656 282.703125 184.488281 281.941406 183.476562 C 281 181.75 280.628906 180.117188 280.617188 178.171875 C 280.707031 176.539062 280.949219 175.125 281.75 173.679688 C 282.664062 172.40625 283.570312 171.453125 284.964844 170.71875 C 287.140625 169.742188 289.242188 169.789062 291.550781 170.21875 " fill-opacity="1" fill-rule="nonzero"/><path fill="#1fade9" d="M 124.582031 178.710938 C 125.597656 178.835938 125.597656 178.835938 126.363281 179.394531 C 126.921875 180.160156 126.921875 180.160156 127.230469 180.96875 C 127.253906 181.816406 127.253906 181.816406 126.863281 182.589844 C 126.179688 183.59375 125.417969 184.390625 124.554688 185.246094 L 124.054688 185.738281 C 123.535156 186.257812 123.011719 186.769531 122.492188 187.285156 L 121.445312 188.320312 C 120.800781 188.960938 120.15625 189.597656 119.511719 190.234375 C 118.921875 190.816406 118.335938 191.402344 117.75 191.988281 C 116.703125 193.035156 115.601562 194.015625 114.496094 194.996094 C 113.992188 195.445312 113.5 195.90625 113.023438 196.378906 L 112.449219 196.9375 L 111.96875 197.425781 C 111.351562 197.722656 111.351562 197.722656 110.328125 197.800781 C 109.429688 197.636719 108.988281 197.355469 108.261719 196.78125 C 107.402344 195.964844 106.578125 195.125 105.761719 194.265625 L 104.894531 193.375 C 102.804688 191.226562 102.804688 191.226562 102.410156 190.433594 C 102.285156 189.5 102.285156 189.5 102.410156 188.445312 C 103.09375 187.472656 103.09375 187.472656 104.066406 186.789062 C 105.164062 186.796875 105.164062 186.796875 106.382812 187.121094 C 107.128906 187.722656 107.71875 188.261719 108.351562 188.960938 L 108.84375 189.484375 C 109.242188 189.90625 109.636719 190.335938 110.027344 190.765625 C 111.554688 190.292969 112.480469 189.429688 113.5625 188.304688 L 114.09375 187.769531 C 114.652344 187.203125 115.207031 186.632812 115.761719 186.0625 C 116.492188 185.320312 117.222656 184.574219 117.953125 183.832031 L 118.484375 183.292969 C 122.796875 178.9375 122.796875 178.9375 124.582031 178.710938 " fill-opacity="1" fill-rule="nonzero"/><path fill="#012f64" d="M 211.386719 170.21875 C 211.972656 170.175781 212.5625 170.144531 213.148438 170.117188 L 214.136719 170.058594 L 215.03125 170.21875 C 215.839844 171.242188 216.246094 172.371094 216.667969 173.597656 C 217.101562 174.835938 217.5625 176.066406 218.054688 177.28125 C 218.527344 178.449219 218.957031 179.621094 219.339844 180.824219 L 220 180.824219 L 220.097656 179.851562 C 220.316406 178.316406 220.871094 176.953125 221.449219 175.523438 L 221.753906 174.75 C 222.363281 173.230469 222.992188 171.722656 223.644531 170.21875 L 227.617188 170.21875 C 227.421875 171.652344 227.074219 172.894531 226.542969 174.238281 L 226.144531 175.253906 C 225.582031 176.652344 224.996094 178.042969 224.414062 179.433594 C 223.992188 180.460938 223.570312 181.484375 223.160156 182.515625 L 222.339844 184.53125 L 221.933594 185.550781 C 221.074219 187.65625 220.132812 189.664062 218.675781 191.425781 C 217.59375 192.113281 216.796875 192.378906 215.53125 192.5 C 214.015625 192.542969 212.757812 192.488281 211.386719 191.757812 C 211.472656 191.265625 211.5625 190.777344 211.65625 190.289062 L 211.808594 189.460938 L 212.050781 188.777344 C 213.042969 188.445312 213.042969 188.445312 214.347656 188.527344 C 215.042969 188.554688 215.042969 188.554688 215.695312 188.445312 C 216.597656 187.792969 216.597656 187.792969 217.019531 186.789062 C 216.605469 182.566406 214.128906 178.421875 212.359375 174.632812 L 211.835938 173.480469 L 211.359375 172.449219 C 211.058594 171.546875 211.058594 171.546875 211.171875 170.761719 Z M 211.386719 170.21875 " fill-opacity="1" fill-rule="nonzero"/><path fill="#fefefe" d="M 160.046875 167.238281 C 165.761719 167.238281 165.761719 167.238281 167.664062 168.253906 C 168.617188 168.886719 169.261719 169.480469 169.941406 170.40625 C 170.933594 172.558594 170.789062 174.851562 170.644531 177.179688 C 170.359375 178.621094 169.820312 179.628906 168.863281 180.761719 C 167.4375 181.949219 166.53125 182.441406 164.683594 182.8125 L 160.046875 182.8125 Z M 160.046875 167.238281 " fill-opacity="1" fill-rule="nonzero"/><path fill="#013065" d="M 193.5 170.21875 C 194.148438 170.203125 194.796875 170.1875 195.445312 170.179688 L 196.542969 170.15625 L 197.476562 170.21875 C 198.421875 171.167969 198.585938 172.316406 198.925781 173.574219 C 199.566406 175.886719 199.566406 175.886719 200.539062 178.070312 C 201.105469 179.136719 201.332031 179.960938 201.449219 181.15625 L 202.113281 180.824219 C 202.417969 180.078125 202.695312 179.320312 202.953125 178.554688 L 203.1875 177.871094 C 203.441406 177.144531 203.6875 176.414062 203.933594 175.6875 C 204.261719 174.730469 204.589844 173.773438 204.917969 172.820312 L 205.144531 172.148438 C 205.328125 171.609375 205.539062 171.078125 205.757812 170.550781 C 206.632812 170.113281 207.304688 170.1875 208.28125 170.199219 L 209.289062 170.207031 L 210.0625 170.21875 C 209.90625 171.757812 209.4375 172.972656 208.78125 174.347656 C 208.273438 175.496094 207.847656 176.664062 207.414062 177.839844 C 207.171875 178.492188 206.929688 179.140625 206.6875 179.792969 C 206.347656 180.699219 206.007812 181.605469 205.664062 182.511719 C 205.449219 183.078125 205.238281 183.644531 205.027344 184.210938 L 204.679688 185.109375 L 204.386719 185.886719 L 204.101562 186.457031 C 203.320312 186.847656 202.835938 186.832031 201.96875 186.828125 L 201.183594 186.832031 C 200.457031 186.789062 200.457031 186.789062 199.464844 186.457031 C 199.050781 185.664062 199.050781 185.664062 198.652344 184.605469 L 198.199219 183.429688 L 197.722656 182.167969 C 197.5625 181.746094 197.398438 181.320312 197.238281 180.898438 C 196.914062 180.054688 196.589844 179.207031 196.269531 178.363281 C 195.875 177.328125 195.476562 176.296875 195.066406 175.269531 L 194.734375 174.441406 C 194.539062 173.945312 194.339844 173.449219 194.140625 172.953125 C 193.761719 171.988281 193.5 171.269531 193.5 170.21875 " fill-opacity="1" fill-rule="nonzero"/><path fill="#145690" d="M 84.191406 153.984375 C 85.488281 154.433594 86.375 155.160156 87.296875 156.179688 C 87.859375 157.003906 88.148438 157.429688 88.230469 158.421875 C 88.253906 159.847656 88.246094 161.027344 87.792969 162.390625 C 86.910156 163.625 85.890625 164.5625 84.519531 165.25 C 83.1875 165.371094 81.882812 165.375 80.546875 165.25 C 79.21875 164.632812 78.671875 164.074219 77.792969 162.910156 C 77.128906 161.753906 76.84375 160.851562 76.800781 159.535156 C 76.8125 158.441406 76.945312 157.664062 77.460938 156.699219 C 78.199219 155.679688 78.84375 155.011719 79.882812 154.316406 C 81.328125 153.835938 82.679688 153.820312 84.191406 153.984375 " fill-opacity="1" fill-rule="nonzero"/><path fill="#013065" d="M 279.625 170.21875 L 279.625 174.195312 L 278.070312 174.320312 C 276.292969 174.5 276.292969 174.5 274.65625 175.191406 C 274.269531 176.347656 274.261719 177.296875 274.230469 178.519531 L 274.214844 179.203125 C 274.1875 180.167969 274.164062 181.132812 274.140625 182.097656 C 274.125 182.800781 274.105469 183.507812 274.085938 184.210938 L 274.054688 185.492188 L 273.992188 186.457031 L 273.660156 186.789062 C 273.117188 186.820312 272.570312 186.832031 272.027344 186.828125 L 271.128906 186.832031 C 270.347656 186.789062 270.347656 186.789062 269.6875 186.457031 C 269.679688 184.199219 269.671875 181.9375 269.667969 179.679688 C 269.667969 178.910156 269.664062 178.140625 269.664062 177.371094 C 269.65625 176.269531 269.65625 175.167969 269.65625 174.0625 L 269.648438 173.015625 L 269.648438 171.195312 L 269.6875 170.550781 L 270.019531 170.21875 C 270.632812 170.195312 271.246094 170.191406 271.859375 170.199219 L 272.875 170.207031 L 273.660156 170.21875 L 273.992188 172.207031 L 274.84375 171.421875 C 276.347656 170.167969 277.703125 169.742188 279.625 170.21875 " fill-opacity="1" fill-rule="nonzero"/><path fill="#07a7f1" d="M 199.570312 196.28125 C 200.785156 196.441406 201.582031 196.875 202.570312 197.585938 C 203.316406 198.238281 203.726562 198.789062 204.101562 199.710938 C 204.402344 200.960938 204.445312 201.914062 204.289062 203.191406 C 203.683594 204.542969 203.023438 205.285156 201.875 206.207031 C 200.867188 206.824219 200.050781 207.027344 198.878906 207.066406 C 197.617188 206.953125 196.574219 206.664062 195.488281 206.007812 C 194.53125 205.132812 193.914062 204.265625 193.5 203.023438 C 193.367188 201.644531 193.34375 200.425781 193.875 199.132812 C 195.53125 197.140625 196.976562 196.253906 199.570312 196.28125 " fill-opacity="1" fill-rule="nonzero"/><path fill="#013166" d="M 143.8125 168.234375 L 144.476562 168.234375 C 144.730469 177.15625 144.851562 186.078125 144.867188 195.003906 C 144.871094 195.75 144.871094 196.496094 144.875 197.246094 C 144.882812 198.4375 144.882812 199.632812 144.882812 200.828125 C 144.882812 201.476562 144.886719 202.125 144.890625 202.773438 C 144.875 209.808594 144.875 209.808594 143.296875 212.777344 C 142.203125 214.394531 140.878906 215.65625 139.175781 216.609375 C 137.089844 217.472656 135.160156 217.773438 132.914062 217.828125 L 131.960938 217.863281 C 128.027344 217.988281 124.089844 217.976562 120.152344 217.96875 L 117.710938 217.964844 C 115.59375 217.964844 113.480469 217.960938 111.363281 217.957031 C 109.195312 217.953125 107.023438 217.953125 104.855469 217.953125 C 100.617188 217.949219 96.378906 217.941406 92.140625 217.933594 L 92.472656 217.273438 C 93.117188 217.148438 93.117188 217.148438 93.957031 217.085938 L 94.875 217.011719 L 95.847656 216.941406 C 97.804688 216.796875 99.566406 216.660156 101.414062 215.945312 C 102.089844 215.753906 102.765625 215.566406 103.445312 215.386719 L 104.460938 215.113281 C 105.367188 214.957031 105.859375 214.980469 106.714844 215.285156 L 105.390625 215.945312 C 107.101562 216.511719 108.640625 216.707031 110.441406 216.699219 L 111.242188 216.707031 C 112.105469 216.710938 112.96875 216.710938 113.832031 216.710938 L 115.648438 216.714844 C 116.914062 216.714844 118.179688 216.714844 119.449219 216.714844 C 121.0625 216.710938 122.679688 216.71875 124.296875 216.726562 C 125.546875 216.730469 126.792969 216.730469 128.042969 216.730469 C 128.640625 216.730469 129.234375 216.730469 129.832031 216.734375 C 132.894531 216.75 135.617188 216.738281 138.515625 215.617188 L 139.242188 215.457031 L 139.839844 215.285156 C 140.1875 214.671875 140.1875 214.671875 140.5 213.960938 L 141.121094 213.359375 C 142.136719 212.316406 142.890625 211.121094 143.34375 209.722656 C 144.226562 205.074219 143.867188 200.035156 143.855469 195.332031 C 143.855469 194.101562 143.855469 192.875 143.859375 191.644531 C 143.859375 188.050781 143.828125 184.472656 143.589844 180.882812 C 143.425781 178.304688 143.523438 175.742188 143.628906 173.160156 L 143.679688 171.710938 C 143.722656 170.550781 143.765625 169.390625 143.8125 168.234375 " fill-opacity="1" fill-rule="nonzero"/><path fill="#fefefe" d="M 259.347656 173.699219 C 260.082031 173.867188 260.082031 173.867188 261.035156 174.402344 C 261.9375 175.414062 262.347656 176.207031 262.730469 177.511719 C 262.769531 178.925781 262.554688 180.121094 262.007812 181.425781 C 261.222656 182.371094 260.507812 182.90625 259.417969 183.476562 C 258.320312 183.632812 257.527344 183.617188 256.472656 183.265625 C 255.808594 182.957031 255.320312 182.648438 254.78125 182.148438 C 254.039062 180.9375 253.816406 179.734375 253.644531 178.339844 C 253.824219 176.871094 254.375 175.792969 255.113281 174.527344 L 256.105469 174.527344 L 256.105469 173.867188 C 257.296875 173.46875 258.117188 173.539062 259.347656 173.699219 " fill-opacity="1" fill-rule="nonzero"/><path fill="#07a7f0" d="M 238.550781 196.398438 C 239.464844 196.394531 239.464844 196.394531 240.539062 196.730469 C 241.191406 197.433594 241.640625 198.234375 242.109375 199.070312 C 242.5625 199.847656 243.03125 200.613281 243.519531 201.367188 L 244.179688 201.367188 L 244.511719 200.375 L 245.175781 200.375 L 245.421875 199.503906 C 245.871094 198.292969 246.335938 197.390625 247.164062 196.398438 C 248.054688 196.253906 248.054688 196.253906 248.820312 196.398438 L 249.148438 196.730469 C 249.179688 197.441406 249.183594 198.152344 249.183594 198.863281 L 249.179688 200.171875 L 249.171875 201.554688 L 249.167969 202.9375 C 249.164062 204.070312 249.15625 205.203125 249.148438 206.339844 L 247.492188 206.667969 C 247.195312 205.773438 247.125 205.265625 247.128906 204.347656 L 247.132812 203.585938 L 247.140625 202.796875 L 247.144531 201.996094 C 247.152344 201.34375 247.15625 200.695312 247.164062 200.042969 L 246.902344 200.597656 C 246.441406 201.476562 245.921875 202.285156 245.359375 203.105469 L 244.761719 204.003906 L 244.179688 204.679688 L 243.1875 204.679688 L 240.539062 200.042969 L 240.207031 200.042969 L 240.207031 206.667969 L 238.550781 206.667969 L 238.21875 206.339844 C 238.1875 205.628906 238.175781 204.921875 238.175781 204.214844 L 238.171875 202.910156 L 238.175781 202.226562 C 238.175781 201.535156 238.175781 200.847656 238.171875 200.15625 L 238.175781 198.851562 L 238.175781 197.644531 L 238.21875 196.730469 Z M 238.550781 196.398438 " fill-opacity="1" fill-rule="nonzero"/><path fill="#07a7f1" d="M 170.644531 196.398438 C 174.898438 196.101562 174.898438 196.101562 176.667969 196.832031 C 177.488281 197.324219 178.007812 197.652344 178.59375 198.386719 C 178.824219 199.507812 178.792969 200.570312 178.59375 201.699219 C 177.871094 202.632812 177.328125 203.160156 176.277344 203.6875 C 175.65625 203.761719 175.035156 203.824219 174.414062 203.875 L 173.40625 203.957031 L 172.632812 204.019531 L 172.300781 206.667969 C 171.75 206.683594 171.195312 206.683594 170.644531 206.667969 L 170.3125 206.339844 C 170.28125 205.628906 170.269531 204.921875 170.269531 204.214844 L 170.269531 202.226562 C 170.273438 201.535156 170.269531 200.847656 170.269531 200.15625 L 170.269531 197.644531 L 170.3125 196.730469 Z M 182.570312 196.398438 C 186.808594 196.101562 186.808594 196.101562 188.59375 196.8125 C 189.527344 197.390625 189.527344 197.390625 190.167969 197.949219 C 190.59375 198.875 190.675781 199.703125 190.636719 200.714844 C 190.519531 201.367188 190.519531 201.367188 189.941406 202.320312 C 189.226562 202.996094 188.773438 203.332031 187.871094 203.6875 C 186.941406 203.75 186.941406 203.75 185.964844 203.726562 L 184.976562 203.710938 L 184.226562 203.6875 L 184.226562 206.667969 L 182.238281 206.667969 C 182.230469 205.257812 182.222656 203.851562 182.21875 202.441406 C 182.21875 201.960938 182.214844 201.480469 182.214844 201 C 182.210938 200.3125 182.207031 199.625 182.207031 198.933594 L 182.199219 197.679688 L 182.238281 196.730469 Z M 182.570312 196.398438 " fill-opacity="1" fill-rule="nonzero"/><path fill="#1fade9" d="M 124.269531 150.671875 C 125.367188 150.566406 125.367188 150.566406 126.589844 150.671875 C 127.316406 151.203125 127.316406 151.203125 127.914062 151.996094 C 128.085938 153.007812 128.085938 153.007812 128.089844 154.179688 L 128.09375 155.464844 L 128.085938 156.128906 C 128.082031 156.800781 128.085938 157.46875 128.09375 158.136719 L 128.089844 159.421875 L 128.085938 160.59375 C 127.914062 161.605469 127.914062 161.605469 127.304688 162.394531 C 126.589844 162.929688 126.589844 162.929688 125.597656 163.097656 C 124.601562 162.929688 124.601562 162.929688 123.835938 162.308594 C 123.277344 161.605469 123.277344 161.605469 122.945312 160.941406 C 122.855469 159.585938 122.867188 158.222656 122.863281 156.863281 L 122.84375 155.714844 L 122.835938 154.609375 L 122.828125 153.597656 C 122.964844 152.511719 123.316406 151.890625 123.941406 151.003906 Z M 124.269531 150.671875 " fill-opacity="1" fill-rule="nonzero"/><path fill="#07a7f1" d="M 100.421875 150.671875 C 101.582031 150.464844 101.582031 150.464844 102.738281 150.671875 C 103.464844 151.386719 103.464844 151.386719 104.066406 152.328125 C 104.230469 153.28125 104.230469 153.28125 104.230469 154.316406 L 104.230469 155.453125 L 104.210938 156.636719 L 104.21875 157.816406 C 104.195312 160.691406 104.195312 160.691406 103.578125 161.875 C 103.070312 162.597656 103.070312 162.597656 102.738281 162.929688 C 101.644531 163.054688 101.644531 163.054688 100.421875 162.929688 C 99.695312 162.222656 99.695312 162.222656 99.097656 161.273438 C 98.925781 160.289062 98.925781 160.289062 98.921875 159.214844 L 98.914062 158.027344 L 98.929688 156.800781 C 98.925781 156.394531 98.921875 155.988281 98.914062 155.574219 L 98.921875 154.386719 L 98.925781 153.3125 C 99.097656 152.328125 99.097656 152.328125 99.695312 151.382812 Z M 265.050781 196.398438 L 266.707031 196.730469 C 267.460938 197.40625 267.460938 197.40625 268.195312 198.261719 L 268.972656 199.164062 C 269.820312 200.207031 270.613281 201.234375 271.34375 202.363281 L 271.34375 203.023438 L 272.003906 203.023438 L 272.003906 196.730469 L 273.660156 196.398438 L 273.992188 196.730469 C 274.023438 197.441406 274.027344 198.152344 274.027344 198.863281 L 274.023438 200.171875 L 274.007812 202.9375 C 274.003906 204.070312 274 205.203125 273.992188 206.339844 L 272.335938 206.667969 C 271.6875 205.933594 271.039062 205.195312 270.390625 204.453125 C 270.113281 204.140625 270.113281 204.140625 269.832031 203.824219 C 268.878906 202.726562 268.128906 201.792969 267.699219 200.375 L 267.039062 200.703125 L 267.039062 206.667969 L 265.050781 206.667969 Z M 265.050781 196.398438 " fill-opacity="1" fill-rule="nonzero"/><path fill="#07a7f0" d="M 214.371094 196.398438 L 216.355469 196.730469 C 216.9375 197.242188 216.9375 197.242188 217.398438 197.898438 L 217.910156 198.609375 L 218.425781 199.359375 C 218.773438 199.84375 219.121094 200.332031 219.46875 200.816406 L 219.921875 201.472656 C 220.34375 202.074219 220.34375 202.074219 220.996094 202.691406 L 221.324219 196.730469 L 222.980469 196.398438 L 223.3125 196.730469 C 223.34375 197.464844 223.347656 198.199219 223.34375 198.933594 L 223.34375 199.601562 C 223.34375 200.308594 223.335938 201.015625 223.332031 201.71875 C 223.332031 202.195312 223.332031 202.675781 223.328125 203.152344 C 223.324219 204.324219 223.320312 205.496094 223.3125 206.667969 C 222.527344 206.703125 222.527344 206.703125 221.65625 206.667969 C 220.996094 206.132812 220.996094 206.132812 220.375 205.386719 L 219.691406 204.570312 C 218.800781 203.421875 217.96875 202.238281 217.167969 201.027344 C 216.734375 200.335938 216.734375 200.335938 216.027344 200.042969 L 216.1875 200.894531 C 216.359375 202.042969 216.402344 203.128906 216.398438 204.289062 L 216.402344 205.433594 L 216.355469 206.339844 L 216.027344 206.667969 L 214.371094 206.667969 Z M 214.371094 196.398438 " fill-opacity="1" fill-rule="nonzero"/><path fill="#07a7f1" d="M 161.039062 196.398438 C 161.988281 196.421875 161.988281 196.421875 163.027344 196.730469 C 163.617188 197.570312 163.617188 197.570312 164.089844 198.683594 L 164.613281 199.890625 L 165.136719 201.160156 C 165.320312 201.582031 165.503906 202.003906 165.683594 202.425781 C 167 205.503906 167 205.503906 167 206.667969 L 165.34375 206.667969 L 164.929688 205.695312 L 164.351562 204.679688 C 163.054688 204.035156 161.375 204.3125 159.960938 204.390625 L 159.382812 204.679688 C 158.792969 205.667969 158.792969 205.667969 158.390625 206.667969 L 156.402344 206.667969 C 157.039062 204.550781 157.875 202.65625 158.886719 200.6875 C 159.457031 199.566406 159.960938 198.429688 160.457031 197.273438 C 160.707031 196.730469 160.707031 196.730469 161.039062 196.398438 M 253.457031 196.398438 L 260.742188 196.398438 L 261.074219 198.054688 L 255.445312 198.054688 L 255.445312 200.703125 L 260.082031 200.703125 L 260.414062 202.363281 L 255.445312 202.363281 L 255.445312 205.011719 L 261.074219 205.011719 L 261.40625 206.667969 L 253.457031 206.667969 Z M 253.457031 196.398438 " fill-opacity="1" fill-rule="nonzero"/><path fill="#094379" d="M 80.878906 168.234375 L 80.878906 168.894531 C 80.3125 169.289062 79.730469 169.660156 79.140625 170.011719 C 77.894531 170.761719 76.929688 171.515625 75.910156 172.539062 L 75.246094 172.539062 L 75.246094 173.203125 L 74.585938 173.203125 L 74.585938 178.171875 C 75.921875 179.054688 76.910156 179.570312 78.519531 179.726562 L 79.28125 179.769531 L 79.882812 179.828125 L 80.214844 180.160156 C 81.144531 180.214844 82.070312 180.246094 83 180.265625 L 83.847656 180.285156 C 84.742188 180.308594 85.636719 180.328125 86.53125 180.347656 L 88.34375 180.390625 C 89.832031 180.425781 91.316406 180.460938 92.800781 180.492188 L 93.132812 181.15625 L 71.933594 181.15625 C 71.933594 176.03125 71.933594 176.03125 72.929688 174.195312 L 73.320312 173.457031 C 74.554688 171.371094 76.136719 170.089844 78.226562 168.894531 C 79.183594 168.5 79.855469 168.234375 80.878906 168.234375 " fill-opacity="1" fill-rule="nonzero"/><path fill="#07a7f1" d="M 292.742188 196.320312 C 293.929688 196.4375 294.796875 196.851562 295.855469 197.390625 L 295.191406 198.71875 L 290.886719 198.386719 L 290.554688 199.710938 L 291.757812 200.144531 C 294.714844 201.265625 294.714844 201.265625 295.835938 202.277344 C 296.1875 203.023438 296.1875 203.023438 296.144531 204.203125 C 295.855469 205.34375 295.855469 205.34375 295.441406 205.945312 C 294.664062 206.472656 294.132812 206.765625 293.207031 207 C 291.824219 207.023438 290.492188 206.960938 289.238281 206.347656 C 288.691406 205.984375 288.691406 205.984375 287.90625 205.34375 L 288.566406 204.351562 L 289.335938 204.515625 C 290.960938 204.734375 292.5625 204.707031 294.199219 204.679688 C 294.210938 204.035156 294.210938 204.035156 293.867188 203.355469 C 293.121094 203.019531 292.355469 202.734375 291.570312 202.507812 C 290.78125 202.265625 290 201.996094 289.230469 201.699219 C 288.566406 200.703125 288.566406 200.703125 288.445312 199.398438 C 288.460938 198.695312 288.460938 198.695312 288.566406 198.054688 C 289.792969 196.460938 290.835938 196.308594 292.742188 196.320312 " fill-opacity="1" fill-rule="nonzero"/><path fill="#fefefe" d="M 198.820312 197.847656 C 200.0625 198.109375 200.800781 198.578125 201.78125 199.378906 C 202.238281 200.101562 202.4375 200.585938 202.496094 201.441406 C 202.421875 202.21875 202.320312 202.933594 202.113281 203.6875 C 201.449219 204.535156 201.449219 204.535156 200.457031 205.011719 C 199.425781 205.191406 198.503906 205.199219 197.476562 205.011719 C 196.480469 204.410156 196.480469 204.410156 195.820312 203.6875 C 195.484375 202.6875 195.320312 201.789062 195.332031 200.730469 C 195.488281 200.042969 195.488281 200.042969 195.9375 199.425781 C 196.871094 198.5625 197.5625 198.105469 198.820312 197.847656 " fill-opacity="1" fill-rule="nonzero"/><path fill="#49ccfc" d="M 138.183594 205.675781 L 138.183594 206.339844 L 139.507812 206.339844 C 139.96875 207.15625 140.300781 207.753906 140.5 208.65625 C 140.296875 209.640625 139.941406 210.390625 139.507812 211.308594 L 138.84375 211.308594 L 138.84375 211.972656 C 137.847656 212.171875 136.882812 212.316406 135.863281 212.300781 C 134.851562 211.703125 134.851562 211.703125 134.207031 210.976562 L 134.207031 210.3125 L 133.546875 209.984375 C 133.496094 209.117188 133.503906 208.445312 133.792969 207.621094 C 134.292969 206.875 134.769531 206.476562 135.53125 206.007812 C 136.496094 205.675781 137.128906 205.675781 138.183594 205.675781 " fill-opacity="1" fill-rule="nonzero"/><path fill="#07a7f1" d="M 226.957031 196.398438 C 228.210938 196.386719 229.46875 196.382812 230.722656 196.375 L 231.808594 196.367188 L 232.84375 196.363281 L 233.800781 196.359375 C 234.574219 196.398438 234.574219 196.398438 235.238281 196.730469 L 234.90625 198.054688 L 232.257812 198.386719 L 231.925781 206.667969 L 229.9375 206.667969 L 229.9375 198.054688 L 226.625 198.054688 Z M 277.304688 196.398438 C 278.5625 196.386719 279.816406 196.382812 281.074219 196.375 L 282.15625 196.367188 L 283.191406 196.363281 L 284.148438 196.359375 C 284.925781 196.398438 284.925781 196.398438 285.585938 196.730469 L 285.585938 198.054688 L 282.605469 198.386719 L 282.273438 206.667969 L 280.617188 206.667969 L 280.285156 198.386719 L 277.304688 198.054688 Z M 277.304688 196.398438 " fill-opacity="1" fill-rule="nonzero"/><path fill="#fefefe" d="M 185.796875 173.441406 C 186.542969 173.535156 186.542969 173.535156 187.539062 174.074219 C 188.199219 174.859375 188.199219 174.859375 188.46875 175.9375 L 188.53125 176.847656 C 186.222656 177.289062 183.917969 177.207031 181.574219 177.179688 C 181.363281 176.582031 181.363281 176.582031 181.246094 175.855469 C 182.675781 173.882812 183.445312 173.40625 185.796875 173.441406 M 289.476562 173.441406 C 290.222656 173.535156 290.222656 173.535156 291.21875 174.074219 C 291.878906 174.859375 291.878906 174.859375 292.148438 175.9375 L 292.210938 176.847656 C 290.679688 177.238281 289.203125 177.214844 287.636719 177.199219 L 286.84375 177.195312 C 286.203125 177.191406 285.566406 177.183594 284.925781 177.179688 C 285.101562 176.085938 285.246094 175.535156 285.898438 174.609375 C 287.011719 173.394531 287.890625 173.417969 289.476562 173.441406 " fill-opacity="1" fill-rule="nonzero"/><path fill="#042457" d="M 270.019531 170.21875 C 270.632812 170.195312 271.246094 170.191406 271.859375 170.199219 L 272.875 170.207031 L 273.660156 170.21875 L 273.992188 171.878906 L 273 172.207031 L 272.667969 170.882812 L 271.34375 170.882812 L 270.679688 171.546875 C 269.996094 175.898438 270.4375 180.425781 270.679688 184.800781 L 272.335938 185.132812 C 272.601562 183.367188 272.8125 181.601562 273 179.828125 L 273.332031 179.828125 L 273.332031 185.460938 L 273.992188 185.460938 L 273.660156 186.789062 C 273.125 186.796875 272.585938 186.804688 272.046875 186.808594 L 271.140625 186.820312 C 270.347656 186.789062 270.347656 186.789062 269.6875 186.457031 C 269.679688 184.199219 269.671875 181.9375 269.667969 179.679688 C 269.667969 178.910156 269.664062 178.140625 269.664062 177.371094 C 269.65625 176.269531 269.65625 175.167969 269.65625 174.0625 L 269.648438 173.015625 L 269.648438 171.195312 L 269.6875 170.550781 Z M 270.019531 170.21875 " fill-opacity="1" fill-rule="nonzero"/><path fill="#07a7f1" d="M 208.074219 196.398438 L 209.730469 196.398438 L 210.0625 196.730469 C 210.09375 197.464844 210.097656 198.199219 210.09375 198.933594 L 210.09375 199.601562 C 210.09375 200.308594 210.089844 201.015625 210.082031 201.71875 C 210.082031 202.195312 210.082031 202.675781 210.078125 203.152344 C 210.074219 204.324219 210.070312 205.496094 210.0625 206.667969 L 208.074219 206.667969 Z M 208.074219 196.398438 " fill-opacity="1" fill-rule="nonzero"/><path fill="#042457" d="M 159.714844 166.574219 C 162.417969 166.472656 164.847656 166.398438 167.332031 167.570312 C 168.347656 168.128906 168.347656 168.128906 168.988281 168.5625 L 168.65625 169.226562 L 166.007812 167.902344 L 160.046875 167.238281 L 160.046875 182.148438 L 159.382812 182.148438 C 158.953125 180.859375 158.996094 179.632812 158.996094 178.289062 L 158.992188 177.4375 C 158.992188 176.839844 158.988281 176.246094 158.988281 175.648438 C 158.988281 174.742188 158.984375 173.832031 158.976562 172.921875 L 158.976562 171.1875 L 158.96875 170.363281 C 158.972656 168.949219 159.058594 167.867188 159.714844 166.574219 " fill-opacity="1" fill-rule="nonzero"/><path fill="#052457" d="M 280.949219 177.839844 L 281.28125 177.839844 L 281.390625 178.570312 C 281.808594 181.144531 281.808594 181.144531 282.9375 183.476562 C 283.367188 183.820312 283.808594 184.152344 284.261719 184.46875 L 284.261719 185.132812 L 285.046875 185.277344 C 285.917969 185.460938 285.917969 185.460938 286.582031 185.792969 C 287.332031 185.828125 288.085938 185.835938 288.835938 185.835938 L 290.066406 185.839844 C 291.050781 185.800781 291.917969 185.691406 292.875 185.460938 C 292.445312 184.507812 291.992188 183.847656 291.21875 183.144531 C 292.96875 182.148438 292.96875 182.148438 293.929688 182.148438 C 294.53125 182.480469 294.53125 182.480469 295.152344 183.246094 L 295.523438 184.136719 C 295.378906 184.839844 295.378906 184.839844 294.863281 185.460938 C 293.328125 186.433594 291.683594 186.898438 289.894531 187.121094 C 287.988281 187.152344 286.328125 186.699219 284.617188 185.871094 C 283.527344 185.222656 282.703125 184.488281 281.941406 183.476562 C 281.019531 181.785156 280.632812 180.089844 280.617188 178.171875 Z M 224.304688 177.179688 L 224.96875 177.179688 C 224.277344 179.691406 223.382812 182.085938 222.382812 184.488281 L 221.964844 185.519531 C 221.09375 187.628906 220.140625 189.65625 218.675781 191.425781 C 217.59375 192.113281 216.796875 192.378906 215.53125 192.5 C 214.015625 192.542969 212.757812 192.488281 211.386719 191.757812 L 212.050781 190.433594 L 212.050781 191.425781 L 216.027344 191.757812 L 216.027344 191.097656 C 217.351562 190.765625 217.351562 190.765625 218.054688 190.703125 L 218.675781 190.433594 C 218.90625 189.773438 219.125 189.109375 219.339844 188.445312 C 219.625 187.859375 219.921875 187.28125 220.226562 186.707031 C 221.253906 184.703125 222.070312 182.644531 222.863281 180.539062 L 223.140625 179.796875 L 223.386719 179.140625 C 223.660156 178.464844 223.972656 177.824219 224.304688 177.179688 " fill-opacity="1" fill-rule="nonzero"/><path fill="#fefefe" d="M 172.632812 198.054688 C 173.582031 197.976562 174.351562 197.917969 175.28125 198.054688 C 176.277344 198.71875 176.277344 198.71875 176.9375 199.378906 C 176.851562 200.046875 176.738281 200.707031 176.609375 201.367188 L 175.945312 202.03125 C 175.082031 202.09375 175.082031 202.09375 174.082031 202.070312 L 173.074219 202.054688 L 172.300781 202.03125 C 172.292969 201.429688 172.285156 200.828125 172.28125 200.230469 L 172.269531 199.214844 L 172.300781 198.386719 Z M 184.558594 198.054688 C 185.78125 197.960938 186.691406 197.988281 187.847656 198.40625 L 188.53125 199.046875 C 188.699219 200.230469 188.699219 200.230469 188.53125 201.367188 C 187.539062 202.03125 187.539062 202.03125 186.71875 202.09375 L 185.820312 202.070312 L 184.914062 202.054688 L 184.226562 202.03125 C 184.21875 201.429688 184.210938 200.828125 184.207031 200.230469 L 184.195312 199.214844 L 184.226562 198.386719 Z M 184.558594 198.054688 " fill-opacity="1" fill-rule="nonzero"/><path fill="#0a447a" d="M 232.917969 167.238281 L 233.914062 167.570312 L 233.601562 168.460938 C 233.242188 169.507812 233.242188 169.507812 233.085938 170.40625 C 232.917969 171.214844 232.917969 171.214844 232.601562 171.972656 C 232.238281 172.917969 232.050781 173.800781 231.882812 174.796875 L 231.714844 175.777344 L 231.59375 176.515625 L 230.929688 176.515625 L 230.929688 175.523438 L 230.269531 175.523438 C 230.007812 172.898438 230.851562 170.609375 231.925781 168.234375 C 232.476562 167.597656 232.476562 167.597656 232.917969 167.238281 " fill-opacity="1" fill-rule="nonzero"/><path fill="#052457" d="M 174.289062 173.535156 L 174.953125 173.535156 C 175.085938 176.101562 175.152344 178.378906 174.042969 180.742188 C 173.082031 182.457031 172.128906 183.933594 170.417969 184.964844 C 169.320312 185.460938 169.320312 185.460938 168.328125 185.460938 L 168.328125 184.800781 C 168.921875 184.371094 168.921875 184.371094 169.714844 183.890625 C 171.070312 183 172.0625 182.203125 172.964844 180.824219 C 173.964844 178.476562 174.164062 176.058594 174.289062 173.535156 " fill-opacity="1" fill-rule="nonzero"/><path fill="#0a447a" d="M 77.566406 156.636719 L 77.898438 157.628906 L 77.667969 158.5 C 77.558594 159.703125 77.714844 160.121094 78.207031 161.191406 L 78.589844 161.953125 C 78.890625 162.597656 78.890625 162.597656 78.890625 163.261719 L 79.699219 163.574219 C 80.546875 163.925781 80.546875 163.925781 80.878906 164.257812 C 82.765625 164.429688 84.390625 164.203125 86.175781 163.59375 L 85.847656 164.585938 C 85.082031 165.113281 84.515625 165.25 83.59375 165.363281 C 82.007812 165.382812 80.84375 165.386719 79.386719 164.710938 C 78.207031 163.589844 77.417969 162.488281 76.902344 160.941406 C 76.863281 160.453125 76.84375 159.964844 76.839844 159.472656 L 76.828125 158.707031 C 76.910156 157.882812 77.15625 157.347656 77.566406 156.636719 " fill-opacity="1" fill-rule="nonzero"/><path fill="#052457" d="M 192.175781 177.511719 L 192.839844 177.511719 C 192.738281 178.175781 192.628906 178.835938 192.507812 179.5 L 192.175781 179.828125 C 191.316406 179.882812 190.464844 179.914062 189.609375 179.933594 L 188.828125 179.957031 C 188.003906 179.976562 187.183594 179.996094 186.359375 180.015625 L 184.6875 180.058594 C 183.320312 180.09375 181.949219 180.128906 180.582031 180.160156 L 180.582031 179.167969 L 191.84375 179.167969 Z M 192.175781 177.511719 " fill-opacity="1" fill-rule="nonzero"/><path fill="#042457" d="M 189.855469 181.816406 C 191.445312 183.285156 191.445312 183.285156 191.78125 184.242188 L 191.84375 184.800781 C 191.070312 185.574219 190.402344 186.066406 189.339844 186.359375 C 188.519531 186.519531 187.703125 186.667969 186.875 186.789062 L 186.542969 186.125 L 187.171875 185.941406 L 187.992188 185.691406 L 188.808594 185.445312 L 189.527344 185.132812 L 190.1875 184.136719 L 189.195312 183.804688 L 188.53125 182.8125 Z M 189.855469 181.816406 " fill-opacity="1" fill-rule="nonzero"/><path fill="#052457" d="M 296.1875 178.835938 L 295.855469 179.828125 C 294.3125 179.847656 292.765625 179.859375 291.222656 179.867188 C 290.695312 179.871094 290.171875 179.875 289.644531 179.878906 C 288.890625 179.886719 288.136719 179.890625 287.378906 179.894531 L 286.667969 179.90625 C 286.085938 179.90625 285.503906 179.871094 284.925781 179.828125 L 284.261719 179.167969 L 292.996094 178.910156 L 293.730469 178.886719 C 295.449219 178.835938 295.449219 178.835938 296.1875 178.835938 " fill-opacity="1" fill-rule="nonzero"/><path fill="#0a447a" d="M 93.132812 156.964844 L 96.777344 156.964844 L 96.828125 158.140625 L 96.902344 159.679688 C 96.910156 159.933594 96.921875 160.1875 96.933594 160.453125 C 97.003906 161.851562 97.140625 162.976562 97.769531 164.257812 L 96.777344 164.257812 C 95.632812 162.117188 95.558594 160.027344 95.453125 157.628906 L 93.132812 157.296875 Z M 93.132812 156.964844 " fill-opacity="1" fill-rule="nonzero"/><path fill="#042457" d="M 176.9375 177.179688 L 177.269531 177.179688 L 177.441406 178.125 C 177.859375 180.675781 177.859375 180.675781 178.882812 183.019531 C 179.832031 184.078125 180.742188 184.875 182.011719 185.523438 C 183.1875 185.882812 184.328125 186 185.550781 186.125 L 185.882812 187.121094 C 181.765625 186.496094 181.765625 186.496094 180.25 185.460938 C 179.105469 184.4375 178.191406 183.398438 177.566406 181.984375 C 177.039062 180.351562 176.828125 178.890625 176.9375 177.179688 " fill-opacity="1" fill-rule="nonzero"/><path fill="#fefefe" d="M 161.371094 199.378906 L 162.363281 199.378906 L 163.359375 202.691406 L 160.046875 202.691406 C 160.414062 201.539062 160.792969 200.449219 161.371094 199.378906 " fill-opacity="1" fill-rule="nonzero"/><path fill="#052457" d="M 279.625 172.539062 L 279.625 174.195312 L 278.957031 174.246094 C 276.722656 174.394531 276.722656 174.394531 274.65625 175.191406 L 274.324219 176.183594 L 273.332031 175.523438 L 273.992188 175.523438 L 274.234375 174.894531 L 274.65625 174.195312 C 275.324219 173.875 275.324219 173.875 276.105469 173.660156 C 276.902344 173.433594 277.613281 173.214844 278.355469 172.84375 C 278.960938 172.539062 278.960938 172.539062 279.625 172.539062 " fill-opacity="1" fill-rule="nonzero"/><path fill="#042457" d="M 247.164062 182.148438 L 248.488281 182.8125 L 248.488281 184.136719 C 247.324219 185.378906 245.855469 185.9375 244.3125 186.578125 C 243.519531 186.789062 243.519531 186.789062 242.753906 186.65625 L 242.195312 186.457031 L 242.195312 186.125 C 242.386719 186.066406 242.578125 186.003906 242.777344 185.941406 C 245.046875 185.222656 245.046875 185.222656 247.164062 184.136719 C 247.511719 183.480469 247.511719 183.480469 247.492188 182.8125 Z M 247.164062 182.148438 " fill-opacity="1" fill-rule="nonzero"/><path fill="#052457" d="M 264.71875 182.8125 L 265.382812 182.8125 C 265.0625 183.929688 264.679688 184.507812 263.871094 185.359375 C 262.640625 186.332031 261.273438 186.5625 259.75 186.789062 L 259.417969 186.125 L 260.023438 185.929688 L 260.828125 185.667969 L 261.617188 185.414062 C 262.363281 185.144531 263.039062 184.863281 263.726562 184.46875 C 264.125 183.804688 264.125 183.804688 264.386719 183.144531 Z M 264.71875 182.8125 " fill-opacity="1" fill-rule="nonzero"/><path fill="#0a356a" d="M 99.425781 216.941406 L 99.757812 217.605469 C 98.035156 217.890625 96.390625 217.976562 94.644531 217.957031 L 93.910156 217.953125 C 93.320312 217.945312 92.730469 217.941406 92.140625 217.933594 L 92.472656 217.273438 C 93.4375 217.136719 93.4375 217.136719 94.664062 217.066406 L 95.878906 216.988281 C 97.0625 216.941406 98.242188 216.933594 99.425781 216.941406 " fill-opacity="1" fill-rule="nonzero"/><path fill="#052457" d="M 204.433594 183.476562 L 205.09375 183.476562 C 204.945312 183.964844 204.792969 184.457031 204.640625 184.945312 L 204.382812 185.773438 L 204.101562 186.457031 C 203.320312 186.847656 202.835938 186.832031 201.96875 186.828125 L 201.183594 186.832031 C 200.457031 186.789062 200.457031 186.789062 199.464844 186.457031 L 199.464844 185.792969 C 202.300781 185.746094 202.300781 185.746094 203.4375 186.125 L 203.75 185.171875 C 204.101562 184.136719 204.101562 184.136719 204.433594 183.476562 M 184.949219 172.851562 L 186.214844 172.871094 L 186.542969 173.535156 L 185.960938 173.558594 C 184.394531 173.667969 184.394531 173.667969 182.921875 174.183594 C 182.460938 174.496094 182.015625 174.84375 181.574219 175.191406 L 181.574219 174.195312 C 182.011719 173.660156 182.011719 173.660156 182.570312 173.203125 C 183.480469 172.898438 184.015625 172.835938 184.949219 172.851562 M 292.210938 170.882812 C 293.234375 171.332031 293.871094 171.8125 294.59375 172.664062 L 295.101562 173.25 C 295.550781 173.902344 295.714844 174.421875 295.855469 175.191406 L 295.191406 175.191406 C 294.644531 174.5 294.644531 174.5 294.035156 173.597656 L 293.421875 172.699219 C 293.019531 172.09375 292.613281 171.488281 292.210938 170.882812 " fill-opacity="1" fill-rule="nonzero"/><path fill="#0a447a" d="M 85.515625 154.976562 C 86.09375 155.183594 86.09375 155.183594 86.839844 155.640625 C 87.585938 156.59375 87.585938 156.59375 88.164062 157.628906 L 88.164062 158.953125 L 87.503906 158.953125 Z M 87.503906 159.617188 L 88.164062 159.617188 C 88.105469 160.542969 88.046875 161.375 87.832031 162.269531 C 87.152344 163.097656 87.152344 163.097656 86.507812 163.59375 C 86.507812 162.59375 86.679688 161.980469 87.003906 161.046875 L 87.285156 160.234375 Z M 87.503906 159.617188 " fill-opacity="1" fill-rule="nonzero"/><path fill="#042558" d="M 279.625 170.21875 L 279.625 172.207031 L 278.628906 171.878906 L 278.300781 170.882812 L 276.644531 170.550781 L 276.644531 170.21875 C 277.761719 169.941406 278.523438 169.851562 279.625 170.21875 " fill-opacity="1" fill-rule="nonzero"/><path fill="#052457" d="M 243.519531 167.238281 L 244.78125 167.570312 C 245.636719 167.792969 246.269531 167.902344 247.164062 167.902344 L 246.5 169.226562 C 245.195312 168.792969 244.4375 168.257812 243.519531 167.238281 M 225.960938 173.203125 L 226.625 173.203125 L 225.632812 176.515625 L 224.96875 176.183594 C 225.152344 175.078125 225.417969 174.1875 225.960938 173.203125 M 266.042969 178.171875 L 266.707031 178.171875 L 266.375 181.15625 L 265.710938 181.15625 Z M 266.042969 178.171875 " fill-opacity="1" fill-rule="nonzero"/><path fill="#d4f1fb" d="M 93.796875 189.4375 L 94.789062 189.4375 L 94.789062 190.765625 L 94.128906 190.765625 L 93.796875 191.425781 C 93.609375 190.804688 93.609375 190.804688 93.464844 190.101562 Z M 93.796875 189.4375 " fill-opacity="1" fill-rule="nonzero"/><path fill="#052457" d="M 285.585938 173.867188 L 286.25 173.867188 C 286 174.652344 286 174.652344 285.585938 175.523438 C 284.882812 175.957031 284.882812 175.957031 284.261719 176.183594 C 285.214844 174.238281 285.214844 174.238281 285.585938 173.867188 " fill-opacity="1" fill-rule="nonzero"/></svg>